# MagicaVoxel @ Ephtracy

# group
o 

# material
mtllib land.mtl
usemtl palette

# normals
vn -1 0 0
vn 1 0 0
vn 0 0 1
vn 0 0 -1
vn 0 -1 0
vn 0 1 0

# texcoords
vt 0.373047 0.5
vt 0.904297 0.5

# verts
v -0.5 0.4 0.2
v -0.5 0.4 -0.3
v -0.5 0.6 0.3
v -0.5 0.6 0.2
v -0.5 0.7 0.4
v -0.5 0.7 0.3
v -0.5 0.7 -0.3
v -0.5 0.7 -0.4
v -0.5 0.8 -0.3
v -0.5 0.8 -0.4
v -0.5 0.9 0.4
v -0.5 0.9 -0.3
v -0.4 0.3 0.1
v -0.4 0.3 -0.3
v -0.4 0.4 0.1
v -0.4 0.4 -0.3
v -0.4 0.5 -0.3
v -0.4 0.5 -0.4
v -0.4 0.6 0.4
v -0.4 0.6 0.3
v -0.4 0.7 0.4
v -0.4 0.7 0.3
v -0.4 0.7 -0.3
v -0.4 0.7 -0.4
v -0.4 0.8 0.5
v -0.4 0.8 0.4
v -0.4 0.9 0.5
v -0.4 0.9 0.4
v -0.3 0.4 0.3
v -0.3 0.4 0.2
v -0.3 0.4 -0.3
v -0.3 0.4 -0.5
v -0.3 0.5 -0.3
v -0.3 0.5 -0.4
v -0.3 0.6 0.3
v -0.3 0.6 -0.4
v -0.3 0.6 -0.5
v -0.3 0.7 0.5
v -0.3 0.7 0.4
v -0.3 0.7 0.3
v -0.3 0.7 0.2
v -0.3 0.7 -0.4
v -0.3 0.7 -0.5
v -0.3 0.8 0.7
v -0.3 0.8 0.5
v -0.3 0.8 0.4
v -0.3 0.8 -0.3
v -0.3 0.8 -0.4
v -0.3 0.9 0.7
v -0.3 0.9 0.5
v -0.3 0.9 -0.3
v -0.3 0.9 -0.5
v -0.3 1 0.5
v -0.3 1 -0.3
v -0.2 0.5 0.5
v -0.2 0.5 0.3
v -0.2 0.6 0.6
v -0.2 0.6 0.5
v -0.2 0.6 0.4
v -0.2 0.6 0.3
v -0.2 0.7 0.5
v -0.2 0.7 0.4
v -0.2 0.8 0.8
v -0.2 0.8 0.7
v -0.2 0.8 0.6
v -0.2 0.8 0.5
v -0.2 0.9 0.8
v -0.2 0.9 0.7
v -0.2 0.9 0.6
v -0.2 0.9 0.5
v -0.2 0.9 -0.3
v -0.2 0.9 -0.4
v -0.2 1 0.6
v -0.2 1 0.5
v -0.2 1 -0.3
v -0.2 1 -0.4
v -0.2 1.1 0.5
v -0.2 1.1 -0.3
v -0.1 0.3 0.4
v -0.1 0.3 0.1
v -0.1 0.4 0.3
v -0.1 0.4 0.1
v -0.1 0.5 0.4
v -0.1 0.5 0.3
v -0.1 0.9 0.8
v -0.1 0.9 0.6
v -0.1 0.9 0.3
v -0.1 0.9 0.2
v -0.1 0.9 -0.4
v -0.1 0.9 -0.5
v -0.1 1 0.8
v -0.1 1 0.6
v -0.1 1 0.3
v -0.1 1 0.2
v -0.1 1 -0.4
v -0.1 1 -0.5
v 0 0.5 -0.1
v 0 0.5 -0.2
v 0 0.6 -0.1
v 0 0.6 -0.2
v 0 0.6 -0.4
v 0 0.6 -0.5
v 0 0.6 -0.6
v 0 0.7 -0.4
v 0 0.7 -0.5
v 0 0.9 -0.5
v 0 0.9 -0.6
v 0.1 0.7 0.7
v 0.1 0.7 0.6
v 0.1 0.8 0.7
v 0.1 0.8 0.6
v 0.2 0.2 0.4
v 0.2 0.2 0.3
v 0.2 0.3 0.4
v 0.2 0.3 0.3
v 0.2 0.7 0.8
v 0.2 0.7 0.7
v 0.2 1 0.8
v 0.2 1 0.7
v -0.4 0.6 0.3
v -0.4 0.6 0.2
v -0.4 0.7 0.3
v -0.4 0.7 0.2
v -0.2 0.9 0.3
v -0.2 0.9 0.2
v -0.2 1 0.3
v -0.2 1 0.2
v -0.1 0.5 -0.1
v -0.1 0.5 -0.2
v -0.1 0.6 -0.1
v -0.1 0.6 -0.2
v 0.1 0.6 -0.5
v 0.1 0.6 -0.6
v 0.1 0.7 -0.5
v 0.1 0.7 -0.6
v 0.1 0.8 0.8
v 0.1 0.8 0.7
v 0.1 1 0.8
v 0.1 1 0.7
v 0.2 0.4 -0.4
v 0.2 0.4 -0.5
v 0.2 0.6 -0.4
v 0.2 0.6 -0.5
v 0.3 0.2 0.4
v 0.3 0.2 0.3
v 0.3 0.3 0.4
v 0.3 0.3 0.3
v 0.3 0.6 0.6
v 0.3 0.6 0.5
v 0.3 0.7 0.8
v 0.3 0.7 0.7
v 0.3 0.7 0.6
v 0.3 0.7 0.5
v 0.3 1 0.8
v 0.3 1 0.7
v 0.4 0.3 0.4
v 0.4 0.3 0.1
v 0.4 0.4 0.3
v 0.4 0.4 0.1
v 0.4 0.5 0.5
v 0.4 0.5 0.4
v 0.4 0.7 0.5
v 0.4 0.7 0.3
v 0.4 0.7 -0.4
v 0.4 0.7 -0.5
v 0.4 0.7 -0.6
v 0.4 0.8 0.7
v 0.4 0.8 0.6
v 0.4 0.8 -0.4
v 0.4 0.8 -0.5
v 0.4 0.9 -0.5
v 0.4 0.9 -0.6
v 0.4 1 0.7
v 0.4 1 0.6
v 0.4 1 0.5
v 0.4 1 -0.3
v 0.4 1 -0.4
v 0.4 1 -0.5
v 0.4 1.1 0.5
v 0.4 1.1 -0.3
v 0.5 0.3 0.1
v 0.5 0.3 -0.3
v 0.5 0.4 0.3
v 0.5 0.4 0.1
v 0.5 0.4 -0.3
v 0.5 0.4 -0.4
v 0.5 0.5 0.2
v 0.5 0.5 -0.3
v 0.5 0.6 0.3
v 0.5 0.6 0.2
v 0.5 0.6 -5.96046e-008
v 0.5 0.6 -0.3
v 0.5 0.6 -0.4
v 0.5 0.6 -0.5
v 0.5 0.7 0.7
v 0.5 0.7 0.4
v 0.5 0.7 -5.96046e-008
v 0.5 0.7 -0.4
v 0.5 0.7 -0.5
v 0.5 0.8 0.7
v 0.5 0.8 0.6
v 0.5 0.9 0.4
v 0.5 0.9 -0.4
v 0.5 1 0.6
v 0.5 1 -0.4
v 0.6 0.6 0.1
v 0.6 0.6 -5.96046e-008
v 0.6 0.7 0.1
v 0.6 0.7 -5.96046e-008
v 0.6 0.7 -0.4
v 0.6 0.9 0.1
v 0.6 0.9 -0.4
v 0.7 0.5 0.2
v 0.7 0.5 -0.3
v 0.7 0.6 0.3
v 0.7 0.6 0.2
v 0.7 0.6 0.1
v 0.7 0.6 -0.3
v 0.7 0.7 0.4
v 0.7 0.7 0.3
v 0.7 0.7 0.1
v 0.7 0.9 0.4
v 0.7 0.9 0.1
v -0.2 0.8 0.8
v -0.2 0.9 0.8
v -0.1 0.9 0.8
v -0.1 1 0.8
v 0.1 0.8 0.8
v 0.1 1 0.8
v 0.2 0.7 0.8
v 0.2 1 0.8
v 0.3 0.7 0.8
v 0.3 1 0.8
v -0.3 0.8 0.7
v -0.3 0.9 0.7
v -0.2 0.8 0.7
v -0.2 0.9 0.7
v 0.1 0.7 0.7
v 0.1 0.8 0.7
v 0.1 1 0.7
v 0.2 0.7 0.7
v 0.2 1 0.7
v 0.3 0.7 0.7
v 0.3 1 0.7
v 0.4 0.8 0.7
v 0.4 1 0.7
v 0.5 0.7 0.7
v 0.5 0.8 0.7
v -0.2 0.6 0.6
v -0.2 0.8 0.6
v -0.2 0.9 0.6
v -0.2 1 0.6
v -0.1 0.9 0.6
v -0.1 1 0.6
v 0.1 0.7 0.6
v 0.1 0.8 0.6
v 0.3 0.6 0.6
v 0.3 0.7 0.6
v 0.4 0.8 0.6
v 0.4 1 0.6
v 0.5 0.8 0.6
v 0.5 1 0.6
v -0.4 0.8 0.5
v -0.4 0.9 0.5
v -0.3 0.7 0.5
v -0.3 0.8 0.5
v -0.3 0.9 0.5
v -0.3 1 0.5
v -0.2 0.5 0.5
v -0.2 0.6 0.5
v -0.2 0.7 0.5
v -0.2 0.8 0.5
v -0.2 0.9 0.5
v -0.2 1 0.5
v -0.2 1.1 0.5
v 0.3 0.6 0.5
v 0.3 0.7 0.5
v 0.4 0.5 0.5
v 0.4 0.7 0.5
v 0.4 1 0.5
v 0.4 1.1 0.5
v -0.5 0.7 0.4
v -0.5 0.9 0.4
v -0.4 0.6 0.4
v -0.4 0.7 0.4
v -0.4 0.8 0.4
v -0.4 0.9 0.4
v -0.3 0.7 0.4
v -0.3 0.8 0.4
v -0.2 0.6 0.4
v -0.2 0.7 0.4
v -0.1 0.3 0.4
v -0.1 0.5 0.4
v 0.2 0.2 0.4
v 0.2 0.3 0.4
v 0.3 0.2 0.4
v 0.3 0.3 0.4
v 0.4 0.3 0.4
v 0.4 0.5 0.4
v 0.5 0.7 0.4
v 0.5 0.9 0.4
v 0.7 0.7 0.4
v 0.7 0.9 0.4
v -0.5 0.6 0.3
v -0.5 0.7 0.3
v -0.4 0.6 0.3
v -0.4 0.7 0.3
v -0.3 0.4 0.3
v -0.3 0.6 0.3
v -0.2 0.5 0.3
v -0.2 0.6 0.3
v -0.1 0.4 0.3
v -0.1 0.5 0.3
v 0.4 0.4 0.3
v 0.4 0.7 0.3
v 0.5 0.4 0.3
v 0.5 0.6 0.3
v 0.7 0.6 0.3
v 0.7 0.7 0.3
v -0.5 0.4 0.2
v -0.5 0.6 0.2
v -0.4 0.6 0.2
v -0.4 0.7 0.2
v -0.3 0.4 0.2
v -0.3 0.7 0.2
v -0.2 0.9 0.2
v -0.2 1 0.2
v -0.1 0.9 0.2
v -0.1 1 0.2
v 0.5 0.5 0.2
v 0.5 0.6 0.2
v 0.7 0.5 0.2
v 0.7 0.6 0.2
v -0.4 0.3 0.1
v -0.4 0.4 0.1
v -0.1 0.3 0.1
v -0.1 0.4 0.1
v 0.4 0.3 0.1
v 0.4 0.4 0.1
v 0.5 0.3 0.1
v 0.5 0.4 0.1
v -0.1 0.5 -0.2
v -0.1 0.6 -0.2
v 0 0.5 -0.2
v 0 0.6 -0.2
v -0.4 0.6 0.3
v -0.4 0.7 0.3
v -0.3 0.6 0.3
v -0.3 0.7 0.3
v -0.2 0.9 0.3
v -0.2 1 0.3
v -0.1 0.9 0.3
v -0.1 1 0.3
v 0.2 0.2 0.3
v 0.2 0.3 0.3
v 0.3 0.2 0.3
v 0.3 0.3 0.3
v 0.6 0.6 0.1
v 0.6 0.7 0.1
v 0.6 0.9 0.1
v 0.7 0.6 0.1
v 0.7 0.7 0.1
v 0.7 0.9 0.1
v 0.5 0.6 -5.96046e-008
v 0.5 0.7 -5.96046e-008
v 0.6 0.6 -5.96046e-008
v 0.6 0.7 -5.96046e-008
v -0.1 0.5 -0.1
v -0.1 0.6 -0.1
v 0 0.5 -0.1
v 0 0.6 -0.1
v -0.5 0.4 -0.3
v -0.5 0.7 -0.3
v -0.5 0.8 -0.3
v -0.5 0.9 -0.3
v -0.4 0.3 -0.3
v -0.4 0.4 -0.3
v -0.4 0.5 -0.3
v -0.4 0.7 -0.3
v -0.3 0.4 -0.3
v -0.3 0.5 -0.3
v -0.3 0.8 -0.3
v -0.3 0.9 -0.3
v -0.3 1 -0.3
v -0.2 0.9 -0.3
v -0.2 1 -0.3
v -0.2 1.1 -0.3
v 0.4 1 -0.3
v 0.4 1.1 -0.3
v 0.5 0.3 -0.3
v 0.5 0.4 -0.3
v 0.5 0.5 -0.3
v 0.5 0.6 -0.3
v 0.7 0.5 -0.3
v 0.7 0.6 -0.3
v -0.5 0.7 -0.4
v -0.5 0.8 -0.4
v -0.4 0.5 -0.4
v -0.4 0.7 -0.4
v -0.3 0.5 -0.4
v -0.3 0.6 -0.4
v -0.3 0.7 -0.4
v -0.3 0.8 -0.4
v -0.2 0.9 -0.4
v -0.2 1 -0.4
v -0.1 0.9 -0.4
v -0.1 1 -0.4
v 0 0.6 -0.4
v 0 0.7 -0.4
v 0.2 0.4 -0.4
v 0.2 0.6 -0.4
v 0.4 0.7 -0.4
v 0.4 0.8 -0.4
v 0.4 1 -0.4
v 0.5 0.4 -0.4
v 0.5 0.6 -0.4
v 0.5 0.7 -0.4
v 0.5 0.8 -0.4
v 0.5 0.9 -0.4
v 0.5 1 -0.4
v 0.6 0.7 -0.4
v 0.6 0.9 -0.4
v -0.3 0.4 -0.5
v -0.3 0.6 -0.5
v -0.3 0.7 -0.5
v -0.3 0.9 -0.5
v -0.1 0.9 -0.5
v -0.1 1 -0.5
v 0 0.6 -0.5
v 0 0.7 -0.5
v 0 0.9 -0.5
v 0.1 0.6 -0.5
v 0.1 0.7 -0.5
v 0.2 0.4 -0.5
v 0.2 0.6 -0.5
v 0.2 0.7 -0.5
v 0.4 0.7 -0.5
v 0.4 0.9 -0.5
v 0.4 1 -0.5
v 0.5 0.6 -0.5
v 0.5 0.7 -0.5
v 0 0.6 -0.6
v 0 0.9 -0.6
v 0.1 0.6 -0.6
v 0.1 0.7 -0.6
v 0.4 0.7 -0.6
v 0.4 0.9 -0.6
v 0.2 0.2 0.4
v 0.3 0.2 0.4
v 0.2 0.2 0.3
v 0.3 0.2 0.3
v -0.1 0.3 0.4
v 0.2 0.3 0.4
v 0.3 0.3 0.4
v 0.4 0.3 0.4
v 0.2 0.3 0.3
v 0.3 0.3 0.3
v -0.4 0.3 0.1
v -0.1 0.3 0.1
v 0.4 0.3 0.1
v 0.5 0.3 0.1
v -0.4 0.3 -0.3
v 0.5 0.3 -0.3
v -0.3 0.4 0.3
v -0.1 0.4 0.3
v 0.4 0.4 0.3
v 0.5 0.4 0.3
v -0.5 0.4 0.2
v -0.3 0.4 0.2
v -0.4 0.4 0.1
v -0.1 0.4 0.1
v 0.4 0.4 0.1
v 0.5 0.4 0.1
v -0.5 0.4 -0.3
v -0.4 0.4 -0.3
v -0.3 0.4 -0.3
v 0.5 0.4 -0.3
v 0.2 0.4 -0.4
v 0.5 0.4 -0.4
v -0.3 0.4 -0.5
v 0.2 0.4 -0.5
v -0.2 0.5 0.5
v 0.4 0.5 0.5
v -0.1 0.5 0.4
v 0.4 0.5 0.4
v -0.2 0.5 0.3
v -0.1 0.5 0.3
v 0.5 0.5 0.2
v 0.7 0.5 0.2
v -0.4 0.5 -0.3
v -0.3 0.5 -0.3
v 0.5 0.5 -0.3
v 0.7 0.5 -0.3
v -0.4 0.5 -0.4
v -0.3 0.5 -0.4
v -0.2 0.6 0.6
v 0.3 0.6 0.6
v -0.2 0.6 0.5
v 0.3 0.6 0.5
v -0.4 0.6 0.4
v -0.2 0.6 0.4
v -0.5 0.6 0.3
v -0.4 0.6 0.3
v -0.3 0.6 0.3
v -0.2 0.6 0.3
v 0.5 0.6 0.3
v 0.7 0.6 0.3
v -0.5 0.6 0.2
v -0.4 0.6 0.2
v 0.5 0.6 0.2
v 0.7 0.6 0.2
v -0.1 0.6 -0.1
v 0 0.6 -0.1
v -0.1 0.6 -0.2
v 0 0.6 -0.2
v 0.2 0.6 -0.4
v 0.5 0.6 -0.4
v 0 0.6 -0.5
v 0.1 0.6 -0.5
v 0.2 0.6 -0.5
v 0.5 0.6 -0.5
v 0 0.6 -0.6
v 0.1 0.6 -0.6
v 0.2 0.7 0.8
v 0.3 0.7 0.8
v 0.1 0.7 0.7
v 0.2 0.7 0.7
v 0.3 0.7 0.7
v 0.5 0.7 0.7
v 0.1 0.7 0.6
v 0.3 0.7 0.6
v -0.3 0.7 0.5
v -0.2 0.7 0.5
v 0.3 0.7 0.5
v 0.4 0.7 0.5
v -0.5 0.7 0.4
v -0.4 0.7 0.4
v -0.3 0.7 0.4
v -0.2 0.7 0.4
v 0.5 0.7 0.4
v 0.7 0.7 0.4
v -0.5 0.7 0.3
v -0.4 0.7 0.3
v -0.3 0.7 0.3
v 0.4 0.7 0.3
v 0.7 0.7 0.3
v -0.4 0.7 0.2
v -0.3 0.7 0.2
v 0.5 0.7 -5.96046e-008
v 0.6 0.7 -5.96046e-008
v -0.5 0.7 -0.3
v -0.4 0.7 -0.3
v -0.5 0.7 -0.4
v -0.4 0.7 -0.4
v -0.3 0.7 -0.4
v 0 0.7 -0.4
v 0.5 0.7 -0.4
v 0.6 0.7 -0.4
v -0.3 0.7 -0.5
v 0 0.7 -0.5
v 0.1 0.7 -0.5
v 0.2 0.7 -0.5
v 0.4 0.7 -0.5
v 0.1 0.7 -0.6
v 0.4 0.7 -0.6
v -0.2 0.8 0.8
v 0.1 0.8 0.8
v -0.3 0.8 0.7
v -0.2 0.8 0.7
v 0.1 0.8 0.7
v -0.2 0.8 0.6
v 0.1 0.8 0.6
v -0.4 0.8 0.5
v -0.3 0.8 0.5
v -0.2 0.8 0.5
v -0.4 0.8 0.4
v -0.3 0.8 0.4
v -0.2 1 0.3
v -0.1 1 0.3
v -0.2 1 0.2
v -0.1 1 0.2
v -0.1 0.5 -0.1
v 0 0.5 -0.1
v -0.1 0.5 -0.2
v 0 0.5 -0.2
v 0.6 0.6 0.1
v 0.7 0.6 0.1
v 0.5 0.6 -5.96046e-008
v 0.6 0.6 -5.96046e-008
v 0.5 0.6 -0.3
v 0.7 0.6 -0.3
v -0.3 0.6 -0.4
v 0 0.6 -0.4
v -0.3 0.6 -0.5
v 0 0.6 -0.5
v 0.4 0.7 -0.4
v 0.5 0.7 -0.4
v 0.4 0.7 -0.5
v 0.5 0.7 -0.5
v 0.4 0.8 0.7
v 0.5 0.8 0.7
v 0.4 0.8 0.6
v 0.5 0.8 0.6
v -0.5 0.8 -0.3
v -0.3 0.8 -0.3
v -0.5 0.8 -0.4
v -0.3 0.8 -0.4
v -0.2 0.9 0.8
v -0.1 0.9 0.8
v -0.3 0.9 0.7
v -0.2 0.9 0.7
v -0.2 0.9 0.6
v -0.1 0.9 0.6
v -0.4 0.9 0.5
v -0.3 0.9 0.5
v -0.2 0.9 0.5
v -0.5 0.9 0.4
v -0.4 0.9 0.4
v 0.5 0.9 0.4
v 0.7 0.9 0.4
v -0.2 0.9 0.3
v -0.1 0.9 0.3
v -0.2 0.9 0.2
v -0.1 0.9 0.2
v 0.6 0.9 0.1
v 0.7 0.9 0.1
v -0.5 0.9 -0.3
v -0.3 0.9 -0.3
v -0.2 0.9 -0.3
v -0.2 0.9 -0.4
v -0.1 0.9 -0.4
v 0.5 0.9 -0.4
v 0.6 0.9 -0.4
v -0.3 0.9 -0.5
v -0.1 0.9 -0.5
v 0 0.9 -0.5
v 0.4 0.9 -0.5
v 0 0.9 -0.6
v 0.4 0.9 -0.6
v -0.1 1 0.8
v 0.1 1 0.8
v 0.2 1 0.8
v 0.3 1 0.8
v 0.1 1 0.7
v 0.2 1 0.7
v 0.3 1 0.7
v 0.4 1 0.7
v -0.2 1 0.6
v -0.1 1 0.6
v 0.4 1 0.6
v 0.5 1 0.6
v -0.3 1 0.5
v -0.2 1 0.5
v 0.4 1 0.5
v -0.3 1 -0.3
v -0.2 1 -0.3
v 0.4 1 -0.3
v -0.2 1 -0.4
v -0.1 1 -0.4
v 0.4 1 -0.4
v 0.5 1 -0.4
v -0.1 1 -0.5
v 0.4 1 -0.5
v -0.2 1.1 0.5
v 0.4 1.1 0.5
v -0.2 1.1 -0.3
v 0.4 1.1 -0.3

# faces
f 4/1/1 2/1/1 1/1/1
f 6/1/1 4/1/1 3/1/1
f 7/1/1 2/1/1 4/1/1
f 7/1/1 4/1/1 6/1/1
f 9/2/1 6/2/1 5/2/1
f 9/2/1 8/2/1 7/2/1
f 9/2/1 7/2/1 6/2/1
f 10/2/1 8/2/1 9/2/1
f 11/2/1 9/2/1 5/2/1
f 12/2/1 9/2/1 11/2/1
f 15/1/1 14/1/1 13/1/1
f 16/1/1 14/1/1 15/1/1
f 21/1/1 20/1/1 19/1/1
f 22/1/1 20/1/1 21/1/1
f 23/1/1 18/1/1 17/1/1
f 24/1/1 18/1/1 23/1/1
f 27/2/1 26/2/1 25/2/1
f 28/2/1 26/2/1 27/2/1
f 33/1/1 32/1/1 31/1/1
f 34/1/1 32/1/1 33/1/1
f 35/1/1 30/1/1 29/1/1
f 36/1/1 32/1/1 34/1/1
f 37/1/1 32/1/1 36/1/1
f 40/1/1 30/1/1 35/1/1
f 41/1/1 30/1/1 40/1/1
f 45/2/1 39/2/1 38/2/1
f 46/2/1 39/2/1 45/2/1
f 48/2/1 43/2/1 42/2/1
f 49/2/1 45/2/1 44/2/1
f 50/2/1 45/2/1 49/2/1
f 51/2/1 48/2/1 47/2/1
f 52/2/1 43/2/1 48/2/1
f 52/2/1 48/2/1 51/2/1
f 53/2/1 51/2/1 50/2/1
f 54/2/1 51/2/1 53/2/1
f 58/1/1 56/1/1 55/1/1
f 59/1/1 56/1/1 58/1/1
f 60/1/1 56/1/1 59/1/1
f 61/1/1 58/1/1 57/1/1
f 61/1/1 59/1/1 58/1/1
f 62/1/1 59/1/1 61/1/1
f 65/1/1 61/1/1 57/1/1
f 66/1/1 61/1/1 65/1/1
f 67/2/1 64/2/1 63/2/1
f 68/2/1 64/2/1 67/2/1
f 73/2/1 70/2/1 69/2/1
f 74/2/1 70/2/1 73/2/1
f 75/2/1 72/2/1 71/2/1
f 76/2/1 72/2/1 75/2/1
f 77/2/1 75/2/1 74/2/1
f 78/2/1 75/2/1 77/2/1
f 81/1/1 80/1/1 79/1/1
f 82/1/1 80/1/1 81/1/1
f 83/1/1 81/1/1 79/1/1
f 84/1/1 81/1/1 83/1/1
f 91/2/1 86/2/1 85/2/1
f 92/2/1 86/2/1 91/2/1
f 93/2/1 88/2/1 87/2/1
f 94/2/1 88/2/1 93/2/1
f 95/2/1 90/2/1 89/2/1
f 96/2/1 90/2/1 95/2/1
f 99/1/1 98/1/1 97/1/1
f 100/1/1 98/1/1 99/1/1
f 104/2/1 103/2/1 102/2/1
f 104/2/1 102/2/1 101/2/1
f 105/2/1 103/2/1 104/2/1
f 106/2/1 103/2/1 105/2/1
f 107/2/1 103/2/1 106/2/1
f 110/2/1 109/2/1 108/2/1
f 111/2/1 109/2/1 110/2/1
f 114/1/1 113/1/1 112/1/1
f 115/1/1 113/1/1 114/1/1
f 118/2/1 117/2/1 116/2/1
f 119/2/1 117/2/1 118/2/1
f 120/1/2 121/1/2 122/1/2
f 122/1/2 121/1/2 123/1/2
f 124/2/2 125/2/2 126/2/2
f 126/2/2 125/2/2 127/2/2
f 128/1/2 129/1/2 130/1/2
f 130/1/2 129/1/2 131/1/2
f 132/2/2 133/2/2 134/2/2
f 134/2/2 133/2/2 135/2/2
f 136/2/2 137/2/2 138/2/2
f 138/2/2 137/2/2 139/2/2
f 140/1/2 141/1/2 142/1/2
f 142/1/2 141/1/2 143/1/2
f 144/1/2 145/1/2 146/1/2
f 146/1/2 145/1/2 147/1/2
f 148/1/2 149/1/2 152/1/2
f 152/1/2 149/1/2 153/1/2
f 150/2/2 151/2/2 154/2/2
f 154/2/2 151/2/2 155/2/2
f 156/1/2 157/1/2 158/1/2
f 158/1/2 157/1/2 159/1/2
f 156/1/2 158/1/2 161/1/2
f 160/1/2 161/1/2 162/1/2
f 161/1/2 158/1/2 163/1/2
f 162/1/2 161/1/2 163/1/2
f 164/1/2 165/1/2 169/1/2
f 165/2/2 166/2/2 170/2/2
f 169/1/2 165/1/2 170/1/2
f 169/2/2 170/2/2 171/2/2
f 170/2/2 166/2/2 171/2/2
f 171/2/2 166/2/2 172/2/2
f 167/2/2 168/2/2 173/2/2
f 173/2/2 168/2/2 174/2/2
f 169/2/2 171/2/2 177/2/2
f 177/2/2 171/2/2 178/2/2
f 175/2/2 176/2/2 179/2/2
f 179/2/2 176/2/2 180/2/2
f 181/1/2 182/1/2 184/1/2
f 184/1/2 182/1/2 185/1/2
f 183/1/2 184/1/2 187/1/2
f 185/1/2 186/1/2 187/1/2
f 184/1/2 185/1/2 187/1/2
f 187/1/2 186/1/2 188/1/2
f 183/1/2 187/1/2 189/1/2
f 189/1/2 187/1/2 190/1/2
f 188/1/2 186/1/2 192/1/2
f 192/1/2 186/1/2 193/1/2
f 193/1/2 194/1/2 197/1/2
f 191/1/2 192/1/2 197/1/2
f 192/1/2 193/1/2 197/1/2
f 197/1/2 194/1/2 198/1/2
f 198/1/2 194/1/2 199/1/2
f 195/2/2 196/2/2 200/2/2
f 200/2/2 196/2/2 201/2/2
f 201/2/2 196/2/2 202/2/2
f 201/2/2 202/2/2 204/2/2
f 202/2/2 203/2/2 204/2/2
f 204/2/2 203/2/2 205/2/2
f 206/2/2 207/2/2 208/2/2
f 208/2/2 207/2/2 209/2/2
f 208/2/2 209/2/2 211/2/2
f 209/2/2 210/2/2 211/2/2
f 211/2/2 210/2/2 212/2/2
f 213/1/2 214/1/2 216/1/2
f 216/1/2 214/1/2 217/1/2
f 217/1/2 214/1/2 218/1/2
f 215/1/2 216/1/2 220/1/2
f 216/1/2 217/1/2 220/1/2
f 220/1/2 217/1/2 221/1/2
f 219/2/2 220/2/2 222/2/2
f 220/2/2 221/2/2 222/2/2
f 222/2/2 221/2/2 223/2/2
f 226/2/3 225/2/3 224/2/3
f 228/2/3 226/2/3 224/2/3
f 228/2/3 227/2/3 226/2/3
f 229/2/3 227/2/3 228/2/3
f 232/2/3 231/2/3 230/2/3
f 233/2/3 231/2/3 232/2/3
f 236/2/3 235/2/3 234/2/3
f 237/2/3 235/2/3 236/2/3
f 241/2/3 239/2/3 238/2/3
f 241/2/3 240/2/3 239/2/3
f 242/2/3 240/2/3 241/2/3
f 245/2/3 244/2/3 243/2/3
f 246/2/3 244/2/3 245/2/3
f 247/2/3 245/2/3 243/2/3
f 248/2/3 245/2/3 247/2/3
f 253/2/3 252/2/3 251/2/3
f 254/2/3 252/2/3 253/2/3
f 255/1/3 250/1/3 249/1/3
f 256/1/3 250/1/3 255/1/3
f 257/1/3 255/1/3 249/1/3
f 258/1/3 255/1/3 257/1/3
f 261/2/3 260/2/3 259/2/3
f 262/2/3 260/2/3 261/2/3
f 266/2/3 264/2/3 263/2/3
f 267/2/3 264/2/3 266/2/3
f 271/2/3 266/2/3 265/2/3
f 272/2/3 266/2/3 271/2/3
f 273/2/3 268/2/3 267/2/3
f 274/2/3 268/2/3 273/2/3
f 276/1/3 270/1/3 269/1/3
f 278/1/3 276/1/3 269/1/3
f 278/1/3 277/1/3 276/1/3
f 279/1/3 277/1/3 278/1/3
f 280/2/3 275/2/3 274/2/3
f 281/2/3 275/2/3 280/2/3
f 285/2/3 283/2/3 282/2/3
f 286/2/3 283/2/3 285/2/3
f 287/2/3 283/2/3 286/2/3
f 288/1/3 285/1/3 284/1/3
f 288/2/3 286/2/3 285/2/3
f 289/2/3 286/2/3 288/2/3
f 290/1/3 288/1/3 284/1/3
f 291/1/3 288/1/3 290/1/3
f 295/1/3 293/1/3 292/1/3
f 296/1/3 295/1/3 294/1/3
f 297/1/3 293/1/3 295/1/3
f 297/1/3 295/1/3 296/1/3
f 298/1/3 293/1/3 297/1/3
f 299/1/3 293/1/3 298/1/3
f 302/2/3 301/2/3 300/2/3
f 303/2/3 301/2/3 302/2/3
f 306/1/3 305/1/3 304/1/3
f 307/1/3 305/1/3 306/1/3
f 310/1/3 309/1/3 308/1/3
f 311/1/3 309/1/3 310/1/3
f 312/1/3 310/1/3 308/1/3
f 313/1/3 310/1/3 312/1/3
f 316/1/3 315/1/3 314/1/3
f 317/1/3 315/1/3 316/1/3
f 318/1/3 315/1/3 317/1/3
f 319/1/3 315/1/3 318/1/3
f 322/1/3 321/1/3 320/1/3
f 324/1/3 322/1/3 320/1/3
f 324/1/3 323/1/3 322/1/3
f 325/1/3 323/1/3 324/1/3
f 328/1/3 327/1/3 326/1/3
f 329/1/3 327/1/3 328/1/3
f 332/1/3 331/1/3 330/1/3
f 333/1/3 331/1/3 332/1/3
f 336/1/3 335/1/3 334/1/3
f 337/1/3 335/1/3 336/1/3
f 340/1/3 339/1/3 338/1/3
f 341/1/3 339/1/3 340/1/3
f 344/1/3 343/1/3 342/1/3
f 345/1/3 343/1/3 344/1/3
f 346/1/4 347/1/4 348/1/4
f 348/1/4 347/1/4 349/1/4
f 350/1/4 351/1/4 352/1/4
f 352/1/4 351/1/4 353/1/4
f 354/1/4 355/1/4 356/1/4
f 356/1/4 355/1/4 357/1/4
f 358/1/4 359/1/4 361/1/4
f 359/2/4 360/2/4 362/2/4
f 361/1/4 359/1/4 362/1/4
f 362/2/4 360/2/4 363/2/4
f 364/2/4 365/2/4 366/2/4
f 366/2/4 365/2/4 367/2/4
f 368/1/4 369/1/4 370/1/4
f 370/1/4 369/1/4 371/1/4
f 372/1/4 373/1/4 377/1/4
f 377/1/4 373/1/4 378/1/4
f 378/1/4 373/1/4 379/1/4
f 376/1/4 377/1/4 380/1/4
f 377/1/4 378/1/4 380/1/4
f 380/1/4 378/1/4 381/1/4
f 374/2/4 375/2/4 382/2/4
f 382/2/4 375/2/4 383/2/4
f 383/2/4 384/2/4 385/2/4
f 385/2/4 384/2/4 386/2/4
f 386/2/4 387/2/4 388/2/4
f 388/2/4 387/2/4 389/2/4
f 376/1/4 380/1/4 390/1/4
f 390/1/4 380/1/4 391/1/4
f 392/1/4 393/1/4 394/1/4
f 394/1/4 393/1/4 395/1/4
f 396/2/4 397/2/4 399/2/4
f 398/1/4 399/1/4 400/1/4
f 400/1/4 399/1/4 401/1/4
f 399/2/4 397/2/4 402/2/4
f 401/1/4 399/1/4 402/1/4
f 402/2/4 397/2/4 403/2/4
f 404/2/4 405/2/4 406/2/4
f 406/2/4 405/2/4 407/2/4
f 401/1/4 402/1/4 408/1/4
f 408/1/4 402/1/4 409/1/4
f 410/1/4 411/1/4 415/1/4
f 415/1/4 411/1/4 416/1/4
f 412/1/4 413/1/4 417/1/4
f 413/2/4 414/2/4 418/2/4
f 417/1/4 413/1/4 418/1/4
f 418/2/4 414/2/4 419/2/4
f 419/2/4 414/2/4 420/2/4
f 417/2/4 418/2/4 421/2/4
f 418/2/4 419/2/4 421/2/4
f 421/2/4 419/2/4 422/2/4
f 425/2/4 426/2/4 427/2/4
f 423/1/4 424/1/4 429/1/4
f 427/2/4 428/2/4 430/2/4
f 425/2/4 427/2/4 430/2/4
f 430/2/4 428/2/4 431/2/4
f 423/1/4 429/1/4 432/1/4
f 423/1/4 432/1/4 434/1/4
f 432/2/4 433/2/4 435/2/4
f 434/1/4 432/1/4 435/1/4
f 435/2/4 433/2/4 436/2/4
f 435/1/4 436/1/4 437/1/4
f 431/2/4 428/2/4 438/2/4
f 438/2/4 428/2/4 439/2/4
f 435/1/4 437/1/4 440/1/4
f 440/1/4 437/1/4 441/1/4
f 442/2/4 443/2/4 444/2/4
f 444/2/4 443/2/4 445/2/4
f 445/2/4 443/2/4 446/2/4
f 446/2/4 443/2/4 447/2/4
f 450/1/5 449/1/5 448/1/5
f 451/1/5 449/1/5 450/1/5
f 456/1/5 453/1/5 452/1/5
f 457/1/5 455/1/5 454/1/5
f 459/1/5 456/1/5 452/1/5
f 459/1/5 457/1/5 456/1/5
f 460/1/5 455/1/5 457/1/5
f 460/1/5 457/1/5 459/1/5
f 462/1/5 459/1/5 458/1/5
f 462/1/5 461/1/5 460/1/5
f 462/1/5 460/1/5 459/1/5
f 463/1/5 461/1/5 462/1/5
f 469/1/5 465/1/5 464/1/5
f 470/1/5 469/1/5 468/1/5
f 471/1/5 465/1/5 469/1/5
f 471/1/5 469/1/5 470/1/5
f 472/1/5 467/1/5 466/1/5
f 473/1/5 467/1/5 472/1/5
f 474/1/5 470/1/5 468/1/5
f 475/1/5 470/1/5 474/1/5
f 478/1/5 477/1/5 476/1/5
f 479/1/5 477/1/5 478/1/5
f 480/1/5 478/1/5 476/1/5
f 481/1/5 478/1/5 480/1/5
f 484/1/5 483/1/5 482/1/5
f 485/1/5 483/1/5 484/1/5
f 486/1/5 484/1/5 482/1/5
f 487/1/5 484/1/5 486/1/5
f 492/1/5 489/1/5 488/1/5
f 493/1/5 489/1/5 492/1/5
f 494/1/5 491/1/5 490/1/5
f 495/1/5 491/1/5 494/1/5
f 498/1/5 497/1/5 496/1/5
f 499/1/5 497/1/5 498/1/5
f 503/1/5 501/1/5 500/1/5
f 504/1/5 501/1/5 503/1/5
f 505/1/5 501/1/5 504/1/5
f 508/1/5 503/1/5 502/1/5
f 509/1/5 503/1/5 508/1/5
f 510/1/5 507/1/5 506/1/5
f 511/1/5 507/1/5 510/1/5
f 514/1/5 513/1/5 512/1/5
f 515/1/5 513/1/5 514/1/5
f 520/1/5 517/1/5 516/1/5
f 521/1/5 517/1/5 520/1/5
f 522/2/5 519/2/5 518/2/5
f 523/2/5 519/2/5 522/2/5
f 527/2/5 525/2/5 524/2/5
f 528/2/5 525/2/5 527/2/5
f 530/2/5 527/2/5 526/2/5
f 530/2/5 529/2/5 528/2/5
f 530/2/5 528/2/5 527/2/5
f 531/2/5 529/2/5 530/2/5
f 534/2/5 529/2/5 531/2/5
f 535/2/5 529/2/5 534/2/5
f 538/2/5 533/2/5 532/2/5
f 539/2/5 533/2/5 538/2/5
f 540/2/5 529/2/5 535/2/5
f 542/2/5 537/2/5 536/2/5
f 543/2/5 537/2/5 542/2/5
f 545/2/5 541/2/5 540/2/5
f 545/2/5 540/2/5 535/2/5
f 546/2/5 541/2/5 545/2/5
f 547/2/5 544/2/5 543/2/5
f 548/2/5 544/2/5 547/2/5
f 553/2/5 552/2/5 551/2/5
f 554/2/5 552/2/5 553/2/5
f 557/2/5 550/2/5 549/2/5
f 558/2/5 550/2/5 557/2/5
f 559/2/5 556/2/5 555/2/5
f 560/2/5 556/2/5 559/2/5
f 564/2/5 563/2/5 562/2/5
f 564/2/5 562/2/5 561/2/5
f 565/2/5 563/2/5 564/2/5
f 569/2/5 567/2/5 566/2/5
f 570/2/5 567/2/5 569/2/5
f 571/2/5 569/2/5 568/2/5
f 571/2/5 570/2/5 569/2/5
f 572/2/5 570/2/5 571/2/5
f 574/2/5 571/2/5 568/2/5
f 575/2/5 571/2/5 574/2/5
f 576/2/5 574/2/5 573/2/5
f 577/2/5 574/2/5 576/2/5
f 580/2/5 579/2/5 578/2/5
f 581/2/5 579/2/5 580/2/5
f 582/1/6 583/1/6 584/1/6
f 584/1/6 583/1/6 585/1/6
f 586/1/6 587/1/6 589/1/6
f 588/1/6 589/1/6 590/1/6
f 589/1/6 587/1/6 591/1/6
f 590/1/6 589/1/6 591/1/6
f 592/1/6 593/1/6 594/1/6
f 594/1/6 593/1/6 595/1/6
f 596/1/6 597/1/6 598/1/6
f 598/1/6 597/1/6 599/1/6
f 600/2/6 601/2/6 602/2/6
f 602/2/6 601/2/6 603/2/6
f 604/2/6 605/2/6 606/2/6
f 606/2/6 605/2/6 607/2/6
f 608/2/6 609/2/6 611/2/6
f 611/2/6 609/2/6 612/2/6
f 610/2/6 611/2/6 612/2/6
f 612/2/6 609/2/6 613/2/6
f 610/2/6 612/2/6 615/2/6
f 615/2/6 612/2/6 616/2/6
f 614/2/6 615/2/6 618/2/6
f 621/1/6 622/1/6 623/1/6
f 623/1/6 622/1/6 624/1/6
f 619/2/6 620/2/6 625/2/6
f 625/2/6 620/2/6 626/2/6
f 617/2/6 618/2/6 627/2/6
f 618/2/6 615/2/6 628/2/6
f 627/2/6 618/2/6 628/2/6
f 628/2/6 629/2/6 630/2/6
f 619/2/6 625/2/6 632/2/6
f 632/2/6 625/2/6 633/2/6
f 630/2/6 631/2/6 634/2/6
f 628/2/6 630/2/6 634/2/6
f 634/2/6 631/2/6 635/2/6
f 636/2/6 637/2/6 638/2/6
f 638/2/6 637/2/6 639/2/6
f 640/2/6 641/2/6 644/2/6
f 642/2/6 643/2/6 645/2/6
f 645/2/6 643/2/6 646/2/6
f 640/2/6 644/2/6 649/2/6
f 646/2/6 647/2/6 649/2/6
f 645/2/6 646/2/6 649/2/6
f 644/2/6 645/2/6 649/2/6
f 649/2/6 647/2/6 650/2/6
f 648/2/6 649/2/6 653/2/6
f 650/2/6 651/2/6 653/2/6
f 649/2/6 650/2/6 653/2/6
f 653/2/6 651/2/6 654/2/6
f 652/2/6 653/2/6 655/2/6
f 655/2/6 653/2/6 656/2/6
f 654/2/6 651/2/6 657/2/6
f 656/2/6 657/2/6 658/2/6
f 658/2/6 657/2/6 659/2/6
f 657/2/6 651/2/6 660/2/6
f 659/2/6 657/2/6 660/2/6
f 660/2/6 651/2/6 661/2/6
f 659/2/6 660/2/6 662/2/6
f 662/2/6 660/2/6 663/2/6
f 664/2/6 665/2/6 666/2/6
f 666/2/6 665/2/6 667/2/6
